<svg id="Layer_5" enable-background="new 0 0 64 64" height="512" viewBox="0 0 64 64" width="512" xmlns="http://www.w3.org/2000/svg"><path d="m62 54v4c0 2.21-1.79 4-4 4h-52c-2.21 0-4-1.79-4-4v-4c0 2.21 1.79 4 4 4h49 2 1c2.21 0 4-1.79 4-4z" fill="#aab2bd"/><path d="m58 26h-52c-2.21 0-4 1.79-4 4v24c0 2.21 1.79 4 4 4h49 2 1c2.21 0 4-1.79 4-4v-1-23c0-2.21-1.79-4-4-4z" fill="#ccd1d9"/><path d="m8.01 42.04c.12 4.42 3.74 7.96 8.19 7.96 1.17 0 2.32-.35 3.3-1s2.13-1 3.3-1h4.4c1.17 0 2.32.35 3.3 1s2.13 1 3.3 1c2.26 0 4.32-.92 5.8-2.4s2.4-3.54 2.4-5.8v4c0 2.26-.92 4.32-2.4 5.8s-3.54 2.4-5.8 2.4c-1.17 0-2.32-.35-3.3-1s-2.13-1-3.3-1h-4.4c-1.17 0-2.32.35-3.3 1s-2.13 1-3.3 1c-2.26 0-4.32-.92-5.8-2.4s-2.4-3.54-2.4-5.8v-3.76z" fill="#cf9e76"/><path d="m41.31 37.83c.45 1.24.69 2.58.69 3.97 0 2.26-.92 4.32-2.4 5.8s-3.54 2.4-5.8 2.4c-1.17 0-2.32-.35-3.3-1s-2.13-1-3.3-1h-4.4c-1.17 0-2.32.35-3.3 1s-2.13 1-3.3 1c-4.45 0-8.07-3.54-8.19-7.96-.01-.08-.01-.16-.01-.24 0-4.42 2.43-8.27 6.03-10.29 1.7-.96 3.67-1.51 5.77-1.51h2.17 8 .23c3.17 0 6.05 1.25 8.16 3.28l.18.18c1.23 1.22 2.18 2.71 2.77 4.37z" fill="#ff826e"/><path d="m28 2c-7.73 0-14 6.27-14 14v.28c0 2.94 1.51 5.66 4 7.22 1.14.72 2.08 1.68 2.76 2.79s1.1 2.38 1.21 3.71h-2.17c-2.1 0-4.07.55-5.77 1.51-.02-.26-.03-.53-.03-.79 0-1.47-.38-2.88-1.07-4.13-.11-.2-.23-.4-.36-.59-.66-.99-1.53-1.85-2.57-2.5-2.49-1.56-4-4.28-4-7.22v-.28c0-3.86 1.57-7.36 4.1-9.9 2.54-2.53 6.04-4.1 9.9-4.1z" fill="#b27946"/><path d="m36 2c-7.73 0-14 6.27-14 14v.28c0 2.94 1.51 5.66 4 7.22 1.14.72 2.08 1.68 2.76 2.79s1.1 2.38 1.21 3.71h-8c-.11-1.33-.53-2.6-1.21-3.71s-1.62-2.07-2.76-2.79c-2.49-1.56-4-4.28-4-7.22v-.28c0-7.73 6.27-14 14-14z" fill="#b27946"/><path d="m58 26v3.28c0 2.96-1.2 5.64-3.14 7.58s-4.62 3.14-7.58 3.14c-2.27 0-4.35-.82-5.97-2.17-.59-1.66-1.54-3.15-2.77-4.37-.06-.06-.12-.12-.18-.18-.24-.82-.36-1.68-.36-2.56 0-1.47-.38-2.88-1.07-4.13-.69-1.24-1.69-2.31-2.93-3.09-2.49-1.56-4-4.28-4-7.22v-.28c0-3.86 1.57-7.36 4.1-9.9 2.54-2.53 6.04-4.1 9.9-4.1 7.73 0 14 6.27 14 14z" fill="#cf9e76"/><path d="m44 2c-3.86 0-7.36 1.57-9.9 4.1-2.53 2.54-4.1 6.04-4.1 9.9v.28c0 2.94 1.51 5.66 4 7.22 1.24.78 2.24 1.85 2.93 3.09.69 1.25 1.07 2.66 1.07 4.13 0 .88.12 1.74.36 2.56-2.11-2.03-4.99-3.28-8.16-3.28h-.23c-.11-1.33-.53-2.6-1.21-3.71s-1.62-2.07-2.76-2.79c-2.49-1.56-4-4.28-4-7.22v-.28c0-7.73 6.27-14 14-14z" fill="#b27946"/><path d="m34 16c0-5.51 4.49-10 10-10s10 4.49 10 10v14c0 3.31-2.69 6-6 6h-.72c-2.91 0-5.28-2.37-5.28-5.28 0-4.34-2.2-8.31-5.88-10.61-1.33-.83-2.12-2.26-2.12-3.83z" fill="#ff826e"/><path d="m36.137 38.489 1.744-.979c-1.56-2.782-4.504-4.51-7.684-4.51h-1.2v2h1.2c2.457 0 4.733 1.337 5.94 3.489z"/><path d="m27 45h.197c1.772 0 3.489.52 4.966 1.503.488.325 1.055.497 1.64.497 2.866 0 5.197-2.332 5.197-5.197 0-.306-.016-.607-.046-.906l-1.99.206c.024.23.036.463.036.7 0 1.763-1.435 3.197-3.197 3.197-.188 0-.372-.056-.53-.162-1.807-1.202-3.908-1.838-6.076-1.838h-.197z"/><path d="m18.552 36.816c.435 1.307 1.652 2.184 3.029 2.184h3.419v-2h-3.419c-.515 0-.97-.328-1.133-.816-.435-1.307-1.652-2.184-3.029-2.184h-2.419v2h2.419c.515 0 .97.328 1.133.816z"/><path d="m59 25.101v-9.101c0-8.271-6.729-15-15-15h-24c-8.271 0-15 6.729-15 15v.283c0 3.301 1.671 6.315 4.47 8.065.314.196.605.417.882.652h-4.352c-2.757 0-5 2.243-5 5v28c0 2.757 2.243 5 5 5h52c2.757 0 5-2.243 5-5v-4-1-23c0-2.414-1.721-4.434-4-4.899zm-2-9.101v13.283c0 5.358-4.359 9.717-9.717 9.717-1.875 0-3.695-.644-5.156-1.809-.645-1.663-1.617-3.163-2.854-4.407-.173-.674-.273-1.366-.273-2.067 0-3.301-1.671-6.315-4.47-8.065-2.211-1.381-3.53-3.762-3.53-6.369v-.283c0-7.168 5.832-13 13-13s13 5.832 13 13zm-37.197 15h10.395c5.956 0 10.802 4.846 10.802 10.803 0 3.968-3.229 7.197-7.197 7.197-.98 0-1.931-.288-2.748-.832-1.148-.764-2.481-1.168-3.858-1.168h-4.395c-1.377 0-2.71.404-3.857 1.168-.817.544-1.767.832-2.748.832-3.968 0-7.197-3.229-7.197-7.197 0-5.957 4.846-10.803 10.803-10.803zm-3.606 20c1.377 0 2.71-.404 3.857-1.168.818-.544 1.768-.832 2.749-.832h4.395c.98 0 1.931.288 2.748.832 1.147.764 2.48 1.168 3.857 1.168 2.744 0 5.204-1.214 6.89-3.126-.892 2.962-3.642 5.126-6.89 5.126-.98 0-1.931-.288-2.748-.832-1.148-.764-2.481-1.168-3.858-1.168h-4.395c-1.377 0-2.71.404-3.857 1.168-.817.544-1.767.832-2.748.832-3.249 0-5.998-2.164-6.89-5.126 1.687 1.912 4.147 3.126 6.89 3.126zm20.351-48c-4.503 2.591-7.548 7.442-7.548 13v.283c0 3.301 1.671 6.315 4.47 8.065 2.211 1.381 3.53 3.762 3.53 6.369 0 .091.016.18.019.271-1.807-1.144-3.916-1.842-6.181-1.955-.475-2.617-2.035-4.96-4.308-6.381-2.211-1.381-3.53-3.762-3.53-6.369v-.283c0-7.168 5.832-13 13-13zm-8 0c-4.503 2.591-7.548 7.442-7.548 13v.283c0 3.301 1.671 6.315 4.47 8.065 1.682 1.051 2.868 2.743 3.321 4.652h-5.957c-.482-2.604-2.039-4.933-4.303-6.348-2.212-1.381-3.531-3.762-3.531-6.369v-.283c0-7.168 5.832-13 13-13zm-21.548 13.283v-.283c0-7.168 5.832-13 13-13h.548c-4.503 2.591-7.548 7.442-7.548 13v.283c0 3.301 1.671 6.315 4.47 8.065 1.682 1.051 2.868 2.743 3.321 4.652h-.988c-1.717 0-3.353.345-4.851.961-.235-2.999-1.839-5.695-4.422-7.309-2.211-1.381-3.53-3.762-3.53-6.369zm54 37.717c0 1.654-1.346 3-3 3h-1v2h1c1.13 0 2.162-.391 3-1.026v.026c0 1.654-1.346 3-3 3h-52c-1.654 0-3-1.346-3-3v-.026c.838.635 1.87 1.026 3 1.026h49v-2h-49c-1.654 0-3-1.346-3-3v-24c0-1.654 1.346-3 3-3h6.017c.633 1.112.983 2.383.983 3.717 0 .085.009.168.011.253-3.604 2.267-6.011 6.27-6.011 10.833 0 .08.01.157.012.237h-.012v3.763c0 5.071 4.126 9.197 9.197 9.197 1.377 0 2.71-.404 3.857-1.168.818-.544 1.768-.832 2.749-.832h4.395c.98 0 1.931.288 2.748.832 1.147.764 2.48 1.168 3.857 1.168 5.071 0 9.197-4.126 9.197-9.197v-4.848h-.043c-.021-.324-.055-.643-.1-.96 1.373.654 2.885 1.005 4.426 1.005 6.461 0 11.717-5.256 11.717-11.717v-2.099c1.161.414 2 1.514 2 2.816v23z"/><path d="m25 33h2v2h-2z"/><path d="m57 45h2v2h-2z"/><path d="m57 53h2v2h-2z"/><path d="m57 49h2v2h-2z"/><path d="m33 16.283c0 1.912.968 3.659 2.59 4.673 3.388 2.117 5.41 5.766 5.41 9.761 0 3.464 2.818 6.283 6.283 6.283h.717c3.859 0 7-3.14 7-7v-14c0-6.065-4.935-11-11-11s-11 4.935-11 11zm2-.283c0-4.962 4.037-9 9-9s9 4.038 9 9v14c0 2.757-2.243 5-5 5h-.717c-2.361 0-4.283-1.921-4.283-4.283 0-4.688-2.374-8.972-6.35-11.457-1.033-.646-1.65-1.759-1.65-2.977z"/><path d="m49 16v2h2v-2c0-3.86-3.141-7-7-7v2c2.757 0 5 2.243 5 5z"/><path d="m41.293 16.708c.834.833 1.942 1.292 3.121 1.292h2.586v-2h-2.586c-.645 0-1.251-.251-1.707-.708-.834-.833-1.942-1.292-3.121-1.292h-2.586v2h2.586c.644 0 1.251.251 1.707.708z"/><path d="m49 20h2v2h-2z"/><path d="m46 23h-2c0 1.781 1.268 3.166 2.493 4.506 1.289 1.409 2.507 2.739 2.507 4.494h2c0-2.532-1.61-4.292-3.031-5.844-1.057-1.155-1.969-2.152-1.969-3.156z"/><path d="m23 43h2v2h-2z"/></svg>