<svg id="Filled" height="512" viewBox="0 0 512 512" width="512" xmlns="http://www.w3.org/2000/svg"><path d="m176 360-56 112h32l56-112z" fill="#d13330"/><path d="m336 360 56 112h-32l-56-112z" fill="#d13330"/><path d="m24.6 216s-23.941 176.037 231.4 176 231.4-176 231.4-176z" fill="#eb423f"/><ellipse cx="256" cy="216" fill="#95573a" rx="232" ry="48"/><circle cx="88" cy="88" fill="#eb423f" r="32"/><circle cx="288" cy="88" fill="#b1bd70" r="32"/><path d="m120 48h48v80h-48z" fill="#95573a"/><path d="m208 48a40 40 0 0 0 0 80z" fill="#f0dfce"/><path d="m256 48v80l-48-30v-18z" fill="#ffd33a"/><path d="m320 40h32v96h-32z" fill="#95573a"/><path d="m304 288a8 8 0 0 0 -8 8v24h-80v-24a8 8 0 0 0 -16 0v32a8 8 0 0 0 8 8h96a8 8 0 0 0 8-8v-32a8 8 0 0 0 -8-8z"/><path d="m320 144h32a8 8 0 0 0 8-8v-40h96a8 8 0 0 0 0-16h-96v-40a8 8 0 0 0 -8-8h-32a8 8 0 0 0 -8 8v16.022a39.912 39.912 0 0 0 -48 0v-8.022a8 8 0 0 0 -12.438-6.656l-35.562 23.708v-17.052a8 8 0 0 0 -8-8 47.8 47.8 0 0 0 -32 12.261v-4.261a8 8 0 0 0 -8-8h-48a8 8 0 0 0 -8 8v8.022a40 40 0 1 0 0 63.956v8.022a8 8 0 0 0 8 8h48a8 8 0 0 0 8-8v-4.261a47.8 47.8 0 0 0 32 12.261 8 8 0 0 0 8-8v-15.566l35.76 22.35a8 8 0 0 0 12.24-6.784v-8.022a39.912 39.912 0 0 0 48 0v16.022a8 8 0 0 0 8 8zm8-96h16v80h-16zm-240 64a24 24 0 1 1 24-24 24.028 24.028 0 0 1 -24 24zm72 8h-32v-64h32zm40-1.012a32.005 32.005 0 0 1 0-61.976zm48-5.422-32-20v-9.285l32-21.333zm40-1.566a24 24 0 1 1 24-24 24.028 24.028 0 0 1 -24 24z"/><path d="m53.989 330.7c23.568 26.986 56.71 46.153 99.022 57.395l-40.166 80.332a8 8 0 0 0 7.155 11.573h32a8 8 0 0 0 7.155-4.422l21.789-43.578h150.112l21.789 43.578a8 8 0 0 0 7.155 4.422h32a8 8 0 0 0 7.155-11.578l-40.177-80.355c42.331-11.253 75.486-30.432 99.056-57.43 39.136-44.827 38.766-96.5 37.7-111.507a18.845 18.845 0 0 0 .266-3.13c0-17.762-24.313-31.427-74.33-41.775-44.337-9.173-103.17-14.225-165.67-14.225s-121.333 5.052-165.67 14.225c-50.017 10.348-74.33 24.013-74.33 41.775a18.833 18.833 0 0 0 .265 3.129c-1.065 15.01-1.438 66.725 37.724 111.571zm418.553-106.7a87.63 87.63 0 0 1 -16.542 7.834v-7.834zm-16.542-16v-7.834a87.63 87.63 0 0 1 16.542 7.834zm-16 28.948c-6.236 1.731-13.383 3.465-21.572 5.159-3.387.7-6.871 1.373-10.428 2.025v-20.132h32zm-48 9.861c-10.156 1.548-20.856 2.911-32 4.082v-26.891h32zm-224 5.606v-28.415h32v30.591c-10.941-.563-21.632-1.291-32-2.176zm48-28.415h32v31.969c-10.818-.076-21.506-.3-32-.68zm48 0h32v31.289c-10.494.377-21.182.6-32 .68zm48 0h32v28.415c-10.368.886-21.059 1.613-32 2.176zm48-16v-26.891c11.144 1.171 21.844 2.534 32 4.082v22.809zm-16 0h-32v-30.591c10.941.563 21.632 1.29 32 2.176zm-48 0h-32v-31.969c10.818.076 21.506.3 32 .68zm-48 0h-32v-31.289c10.494-.377 21.182-.6 32-.68zm-48 0h-32v-28.415c10.368-.886 21.059-1.613 32-2.176zm-48 0h-32v-22.809c10.156-1.548 20.856-2.911 32-4.082zm0 16v26.891c-11.144-1.171-21.844-2.534-32-4.082v-22.809zm-48 20.132c-3.557-.652-7.041-1.324-10.428-2.025-8.189-1.694-15.336-3.428-21.572-5.159v-12.948h32zm-48-12.3a87.63 87.63 0 0 1 -16.542-7.832h16.542zm-16.542-23.832a87.63 87.63 0 0 1 16.542-7.834v7.834zm107.6 256h-14.114l36.061-72.121q6.326 1.318 12.9 2.421zm41.888-48 9.642-19.283a473.71 473.71 0 0 0 57.332 3.283h.08a474.17 474.17 0 0 0 57.406-3.3l9.649 19.3zm190.112 48h-14.114l-34.859-69.718q6.57-1.107 12.9-2.423zm66.925-143.885c-37 42.378-100.92 63.872-189.983 63.885h-.079c-88.858 0-152.686-21.408-189.7-63.629-25.1-28.629-32.077-61.059-33.724-81.825 12.286 7.406 31.492 13.778 57.838 19.229 44.332 9.173 103.165 14.225 165.665 14.225s121.333-5.052 165.67-14.225c26.382-5.458 45.606-11.841 57.889-19.259-1.608 20.657-8.529 52.908-33.578 81.599zm-5.983-125.063v12.948h-32v-20.132c3.557.652 7.041 1.324 10.428 2.025 8.189 1.694 15.336 3.428 21.572 5.159zm-346.428-5.159c3.387-.7 6.871-1.373 10.428-2.025v20.132h-32v-12.948c6.236-1.731 13.383-3.465 21.572-5.159z"/></svg>