<svg id="Capa_1" enable-background="new 0 0 512 512" height="512" viewBox="0 0 512 512" width="512" xmlns="http://www.w3.org/2000/svg"><g><g><path d="m481.5 438.015-89.463-7c6.368-20.218 25.261-34.881 47.582-34.881 5.642 0 11.059.95 16.116 2.677 17.374 9.095 24.128 27.78 25.765 39.204z" fill="#ffd064"/><path d="m474.5 431.015c-1.637-11.424-8.372-23.624-18.765-32.205 19.637 6.703 33.765 25.298 33.765 47.205l-49.881 15-49.881-15c0-5.227.808-10.265 2.299-15z" fill="#ebb044"/><path d="m343.239 445.161-257.14-14.146-36.37-29.453c-9.976-9.283-20.673-36.012-20.673-48.61 0-13.698 11.885-26.737 33.771-26.737 92.418 0 50.525-123.438 265.251-136.947z" fill="#af857f"/><path d="m299.69 431.018c-12.161-21.047-20.415-52.338-20.415-90.918 0-57.971 16.375-125.001 48.802-150.831 12.429-.782 25.717-1.196 39.941-1.196v272.941h-244.874l-37.045-29.999z" fill="#98756e"/><path d="m368.019 188.074c46.12 8.29 65.744 82.879 65.744 152.026 0 66.52-21.912 95.915-55.351 95.915h-40.785c-6.847 0-13.819-6.294-20.452-9.245-13.425-17.469-22.899-46.617-22.899-86.67-.001-69.147 24.782-152.026 73.743-152.026z" fill="#ffbee6"/><path d="m372.411 431.015c28.105 0 54.351-21.728 54.351-90.915 0-69.147-13.954-133.575-58.744-152.026 48.961 0 73.744 82.879 73.744 152.026 0 69.187-28.246 105.915-56.351 105.915l-17.393 15-17.392-15c-11.835 0-23.687-6.538-33.452-19.245 6.633 2.951 13.605 4.245 20.452 4.245z" fill="#e592d0"/><ellipse cx="368.019" cy="348.074" fill="#fcf5c7" rx="15" ry="22.5"/><path d="m214.025 438.015-89.463-7c6.368-20.218 25.261-34.881 47.582-34.881 5.642 0 11.059.95 16.116 2.677 17.374 9.095 24.127 27.78 25.765 39.204z" fill="#ffd064"/><path d="m207.025 431.015c-1.637-11.424-8.372-23.624-18.765-32.205 19.637 6.703 33.765 25.298 33.765 47.205l-49.881 15-49.881-15c0-5.227.808-10.265 2.299-15z" fill="#ebb044"/><path d="m114.262 438.015-89.463-7c6.368-20.218 25.261-34.881 47.582-34.881 5.642 0 11.059.95 16.116 2.677 17.375 9.095 24.128 27.78 25.765 39.204z" fill="#ffd064"/><path d="m107.262 431.015c-1.637-11.424-8.372-23.624-18.765-32.205 19.637 6.703 33.765 25.298 33.765 47.205l-49.881 15-49.881-15c0-5.227.808-10.265 2.299-15z" fill="#ebb044"/><path d="m223.624 430.589c3.625-15.794 13.411-25.581 29.205-29.205 5.68 18.697-7.689 35.324-29.205 29.205z" fill="#95d6a4"/><path d="m252.829 401.384c4.628-1.062 9.769-1.599 15.426-1.599 0 30.615-15.615 46.23-46.23 46.23 0-5.656.537-10.797 1.599-15.426 17.313-2.076 27.129-11.891 29.205-29.205z" fill="#66b394"/><path d="m149.031 201.707c7.639 7.639 10.342 20.532 10.342 30.888-10.355 0-23.747-3.202-30.888-10.342-3.549-6.899-5.342-15.532-5.342-25.888 10.356 0 18.989 1.793 25.888 5.342z" fill="#95d6a4"/><path d="m149.031 201.707c13.498 6.944 20.342 20.628 20.342 40.888-20.259 0-33.944-6.845-40.888-20.342 6.899 3.549 15.532 5.342 25.888 5.342.001-10.356-1.792-18.989-5.342-25.888z" fill="#66b394"/><path d="m17.5 446.015h473c4.512 13.574-3.469 20-8.79 20l-473.555-5c-.413-1.601-.656-3.27-.656-5 .001-5.523 4.478-10 10.001-10z" fill="#fcf5c7"/><path d="m490.5 446.015h4c5.523 0 10 4.477 10 10 0 11.046-8.954 20-20 20h-457c-9.316 0-17.121-6.379-19.344-15h473.554c5.321 0 8.79-3.954 8.79-15z" fill="#f8e883"/></g><g><path d="m484.5 483.515h-457c-15.164 0-27.5-12.336-27.5-27.5 0-8.964 6.775-16.375 15.473-17.383 2.054-15.921 10.657-29.816 23.013-38.891-9.285-13.452-16.929-35.27-16.929-46.788 0-17.014 14.176-34.237 41.271-34.237 4.142 0 7.5 3.358 7.5 7.5s-3.358 7.5-7.5 7.5c-18.05 0-26.271 9.972-26.271 19.237 0 9.058 7.5 29.31 15.147 39.534 6.418-2.488 13.392-3.853 20.678-3.853 21.339 0 39.995 11.709 49.881 29.04 9.886-17.331 28.542-29.04 49.881-29.04 20.675 0 38.833 10.993 48.934 27.439 8.317-15.525 24.376-23.788 47.178-23.788 4.143 0 7.5 3.358 7.5 7.5 0 16.622-4.392 29.661-12.786 38.73h54.567c-4.414-4.368-8.48-9.625-12.075-15.687-12.225-20.612-18.686-49.219-18.686-82.729 0-30.818 4.691-62.372 13.21-88.85 1.27-3.944 5.496-6.108 9.437-4.843 3.943 1.269 6.111 5.494 4.843 9.437-8.054 25.033-12.489 54.956-12.489 84.256 0 47.709 17.121 98.415 48.851 98.415h34.785c31.73 0 48.852-50.706 48.852-98.415 0-35.779-6.534-71.878-17.928-99.042-8.703-20.75-24.149-45.484-48.316-45.484-20.463 0-34.493 18.231-42.66 33.526-1.951 3.653-6.491 5.036-10.149 3.083-3.653-1.951-5.034-6.495-3.083-10.148 5.54-10.374 11.788-18.877 18.628-25.424-36.906 2.158-68.238 7.696-94.586 16.725l11.093 11.093 2.697-2.696c2.929-2.928 7.678-2.929 10.607 0s2.929 7.678 0 10.606l-2.697 2.697 19.067 19.066c2.929 2.929 2.929 7.678 0 10.606-2.93 2.929-7.678 2.929-10.607 0l-19.066-19.066-32.116 32.116 32.117 32.116 9.066-9.066c2.928-2.929 7.677-2.929 10.607 0 2.929 2.929 2.929 7.678 0 10.606l-9.067 9.067 13.082 13.081c2.929 2.929 2.929 7.678 0 10.606-2.93 2.928-7.678 2.929-10.607 0l-13.081-13.081-14.601 14.6c-2.929 2.929-7.678 2.929-10.606 0-2.929-2.929-2.929-7.678 0-10.606l14.6-14.601-32.116-32.116-32.117 32.117 19.066 19.066c2.929 2.929 2.929 7.678 0 10.606-2.929 2.929-7.678 2.929-10.606 0l-19.066-19.066-31.081 31.081c-2.929 2.929-7.678 2.929-10.606 0-2.929-2.929-2.929-7.678 0-10.606l31.081-31.081-21.165-21.165c-9.76 11.748-20.235 22.026-34.482 28.184-3.802 1.643-8.216-.108-9.86-3.91-1.643-3.802.107-8.217 3.91-9.86 15.861-6.854 26.603-20.737 39.041-36.813 6.995-9.041 14.563-18.823 23.918-28.572-23.961-5.438-36.926-23.421-36.926-51.981 0-4.142 3.358-7.5 7.5-7.5 29.406 0 47.6 13.746 52.432 39.086 34.839-25.965 90.232-47.376 192.442-47.376 25.654 0 47.145 18.909 62.149 54.682 12.135 28.932 19.095 67.146 19.095 104.844 0 17.761-1.815 34.147-5.342 48.693 27.184 2.023 49.153 23.07 52.606 49.838 8.698 1.008 15.473 8.419 15.473 17.383-.005 15.166-12.341 27.502-27.505 27.502zm-467-30c-1.378 0-2.5 1.122-2.5 2.5 0 6.893 5.607 12.5 12.5 12.5h457c6.893 0 12.5-5.607 12.5-12.5 0-1.378-1.121-2.5-2.5-2.5h-309.667c-4.142 0-7.5-3.358-7.5-7.5s3.358-7.5 7.5-7.5h29.027c-3.551-19.804-20.906-34.881-41.716-34.881s-38.166 15.077-41.717 34.881h24.406c4.142 0 7.5 3.358 7.5 7.5s-3.358 7.5-7.5 7.5zm401.002-15h62.834c-3.552-19.804-20.907-34.881-41.717-34.881-.04 0-.08 0-.12 0-2.509 6.984-5.487 13.404-8.922 19.195-3.595 6.061-7.662 11.318-12.075 15.686zm-387.837 0h83.433c-3.551-19.804-20.906-34.881-41.716-34.881-20.811 0-38.166 15.077-41.717 34.881zm229.675-30.814c-18.491 2.069-28.331 11.908-30.4 30.399 18.491-2.07 28.33-11.908 30.4-30.399zm-120.906-120.207 22.381 22.381 32.117-32.117-24.779-24.779c-11.542 11.022-20.385 22.452-28.637 33.118-.362.467-.722.932-1.082 1.397zm41.037-44.409 24.067 24.067 32.116-32.116-15.815-15.814c-5.121 2.195-10.031 4.547-14.728 7.053-9.807 5.234-18.235 10.904-25.64 16.81zm-49.411-38.805c2.069 18.491 11.908 28.33 30.399 30.399-2.07-18.491-11.909-28.33-30.399-30.399zm236.959 173.794c-12.617 0-22.5-13.178-22.5-30s9.883-30 22.5-30 22.5 13.178 22.5 30-9.883 30-22.5 30zm0-45c-3.058 0-7.5 5.843-7.5 15s4.442 15 7.5 15 7.5-5.843 7.5-15-4.443-15-7.5-15zm-18.019-167.5c-1.92 0-3.839-.732-5.304-2.197-23.102-23.103-23.102-48.549 0-71.651 17.206-17.206 17.206-33.233 0-50.438-2.929-2.929-2.929-7.678 0-10.606 2.93-2.929 7.678-2.929 10.607 0 23.103 23.103 23.103 48.549 0 71.651-17.206 17.206-17.206 33.232 0 50.438 2.929 2.929 2.929 7.678 0 10.606-1.464 1.465-3.384 2.197-5.303 2.197zm-90 0c-1.92 0-3.839-.732-5.303-2.197-23.103-23.103-23.103-48.549 0-71.651 17.206-17.206 17.206-33.233 0-50.438-2.929-2.929-2.929-7.678 0-10.606 2.928-2.929 7.677-2.929 10.607 0 23.103 23.103 23.103 48.549 0 71.651-17.206 17.206-17.206 33.232 0 50.438 2.929 2.929 2.929 7.678 0 10.606-1.465 1.465-3.385 2.197-5.304 2.197zm-90 0c-1.919 0-3.839-.732-5.303-2.197-23.103-23.103-23.103-48.549 0-71.651 17.206-17.206 17.206-33.233 0-50.438-2.929-2.929-2.929-7.678 0-10.606 2.929-2.929 7.678-2.929 10.606 0 23.103 23.103 23.103 48.549 0 71.651-17.205 17.206-17.205 33.232 0 50.438 2.929 2.929 2.929 7.678 0 10.606-1.464 1.465-3.384 2.197-5.303 2.197z"/></g></g></svg>