<svg id="Layer_1" enable-background="new 0 0 512.002 512.002" height="512" viewBox="0 0 512.002 512.002" width="512" xmlns="http://www.w3.org/2000/svg"><g><g clip-rule="evenodd" fill-rule="evenodd"><path d="m116.013 119.815h260c33 0 60 27 60 59.999v.001c0 22.091-12.1 41.491-30 51.905v230.283c0 22.001-18 40-40 40h-240c-22 0-40-17.999-40-40v-230.284c-17.899-10.414-30-29.814-30-51.905v-.001c0-32.999 27-59.998 60-59.998z" fill="#ff9171"/><path d="m241.781 56.033 13.645 7.907 15.775-.026c32.849 0 41.982 31.977 45.514 35.508l2.388 1.373c11.609-28.545 39.353-47.213 70.169-47.213 34.552 0 63.701 23.134 72.801 54.758 8.694-10.415 13.941-23.794 13.941-38.34 0-33-27-60-60-60h-260c-33 0-60 27-60 60 0 14.091 4.924 27.086 13.136 37.354 6.551-4.264 12.388-6.535 13.784-7.931l7.891-13.718c16.63-28.927 48.149-20.36 53.398-21.766 4.872-1.304 28.853-24.67 57.558-7.906z" fill="#ff9171"/><path d="m255.426 63.94-13.645-7.907c-28.705-16.764-52.686 6.602-57.559 7.907-5.248 1.406-36.768-7.161-53.398 21.766l-7.891 13.718c-1.396 1.396-7.233 3.667-13.784 7.931-5.941 3.867-12.47 9.374-16.803 17.353 7.27-3.146 15.274-4.892 23.665-4.892h228.432c-3.231-4.587-7.739-8.895-14.012-12.501l-11.329-6.517-2.388-1.374c-3.532-3.532-12.665-35.508-45.514-35.508z" fill="#88df8e"/><path d="m436.013 179.815c0 22.091-12.1 41.491-30 51.905v75.897c13.571-1.018 26.144-5.612 36.781-12.842 20.05-13.628 33.22-36.622 33.22-62.692 0-29.736-17.136-55.465-42.07-67.863 1.349 4.976 2.069 10.205 2.069 15.595z" fill="#c68a86"/><path d="m442.794 294.774c-10.637 7.23-23.211 11.824-36.781 12.842v136.725l4.507-7.835c3.251-3.251 32.687-11.658 32.687-41.897l-.024-14.521 7.279-12.561c15.431-26.426-6.077-48.498-7.279-52.985-.628-2.342.903-10.372-.389-19.768z" fill="#88df8e"/><circle cx="314.641" cy="228.782" fill="#ff9171" r="22.5"/><path d="m86.013 377.526v-133.235l-38.333 38.333c-15.556 15.557-15.556 41.012 0 56.569z" fill="#ffc144"/><path d="m433.945 164.219c5.755 2.862 11.094 6.433 15.903 10.6l.001-.005c9.849-13.118 15.174-29.078 15.174-45.482 0-7.283-1.028-14.327-2.947-20.993-9.102-31.624-38.251-54.757-72.803-54.757-30.816 0-58.56 18.668-70.169 47.214l11.329 6.517c6.274 3.607 10.782 7.914 14.012 12.501h31.568c27.611.001 51.022 18.902 57.932 44.405z" fill="#ff5d7d"/><circle cx="186.767" cy="410.658" fill="#ff9171" r="30"/></g><g><path d="m463.307 290.209c14.643-15.874 22.707-36.518 22.707-58.127 0-22.317-8.48-43.104-23.172-58.706 7.984-13.295 12.181-28.375 12.181-44.044 0-6.434-.735-12.696-2.085-18.729 8.457-11.827 13.076-26.054 13.076-40.604 0-38.598-31.401-70-69.999-70h-260.001c-38.598 0-69.999 31.402-69.999 70 0 12.518 3.271 24.495 9.51 35.13-3.643 3.208-7.182 7.071-10.172 11.771-23.272 11.387-39.34 35.306-39.34 62.913 0 22.833 11.36 44.312 30 57.369v2.965l-35.404 35.404c-19.494 19.495-19.495 51.216 0 70.711l35.404 35.404v80.333c0 27.57 22.43 50 50 50h240c27.57 0 50-22.43 50-50v-14.99l1.948-3.387c.425-.224.893-.467 1.316-.687 9.279-4.818 33.929-17.616 33.929-48.344l-.02-11.825 5.911-10.199c15.659-26.816.577-50.346-5.101-59.204-.312-.485-.663-1.033-.956-1.502.021-.608.058-1.345.089-1.993.129-2.648.297-6.265.11-10.379 3.568-2.806 6.944-5.893 10.068-9.28zm-47.294 5.697v-47.761l8.604 4.447c1.469.759 3.037 1.119 4.584 1.119 3.62 0 7.114-1.972 8.892-5.41 2.536-4.906.614-10.939-4.292-13.475l-9.193-4.752c12.331-11.955 20.014-28.148 21.229-45.428 12.741 12.19 20.177 29.142 20.177 47.435 0 30.395-21.277 56.687-50.001 63.825zm-66.758-186.092c-3.821-4.326-8.452-8.075-13.836-11.169l-3.266-1.879c11.597-20.376 33.279-33.185 57.12-33.185 36.255 0 65.75 29.495 65.75 65.75 0 10.942-2.675 21.507-7.775 31.008-1.61-1.051-3.264-2.052-4.958-3.003-1.836-5.399-4.311-10.5-7.34-15.219-.383-21.543-13.079-41.333-32.579-50.615-4.985-2.373-10.953-.256-13.327 4.731-2.374 4.986-.256 10.953 4.731 13.327 2.903 1.382 5.56 3.138 7.956 5.168-7.968-3.16-16.64-4.916-25.719-4.916h-26.757zm-243.24-39.814c0-27.57 22.43-50 49.999-50h260.001c27.569 0 49.999 22.43 49.999 50 0 5.513-.94 10.961-2.717 16.126-14.896-25.423-42.49-42.545-74.024-42.545-28.983 0-55.521 14.514-71.24 38.007-7.402-11.781-21.372-27.675-46.848-27.675l-13.078.021-11.282-6.538c-28.674-16.746-53.912-.568-63.414 5.522-.608.39-1.304.835-1.864 1.182-.714-.021-1.639-.066-2.441-.105-12.108-.589-40.452-1.972-56.948 26.723l-6.683 11.618c-.52.276-1.12.588-1.655.866-.505.262-1.042.541-1.6.835-4.075-7.332-6.205-15.511-6.205-24.037zm-51.264 262.122c-11.697-11.697-11.697-30.73 0-42.427l21.262-21.262v84.95zm341.262 129.88c0 16.542-13.458 30-30 30h-240c-16.542 0-30-13.458-30-30v-230.283c0-3.561-1.894-6.853-4.972-8.644-15.438-8.982-25.028-25.559-25.028-43.262 0-27.57 22.43-50 50-50h84.996c5.522 0 10-4.477 10-10s-4.478-10-10-10h-21.685c1.054-1.355 2.226-2.61 3.525-3.697 4.235-3.545 4.794-9.852 1.249-14.087-3.544-4.235-9.853-4.793-14.087-1.249-6.027 5.045-10.619 11.665-13.291 19.033h-31.516c1.994-1.075 3.491-2.01 4.802-3.32.621-.622 1.158-1.323 1.597-2.085l7.893-13.72c9.599-16.696 24.983-17.384 38.636-16.717 3.578.174 6.165.301 8.679-.373 2.404-.644 4.389-1.916 7.394-3.842 11.823-7.576 25.833-14.844 42.565-5.073l13.645 7.907c1.523.883 3.253 1.348 5.014 1.348h.017l15.759-.026c19.089 0 27.551 13.219 33.983 25.608 1.634 3.146 2.713 5.225 4.46 6.972.621.621 1.322 1.158 2.084 1.596l2.997 1.724h-23.717c-5.522 0-10 4.477-10 10s4.478 10 10 10h85.004c27.57 0 50 22.43 50 50 0 17.703-9.591 34.279-25.028 43.261-3.078 1.791-4.972 5.083-4.972 8.644v230.285zm37.511-144.872c.625 2.332 1.888 4.302 3.636 7.029 6.848 10.684 13.42 23.336 4.65 38.354l-7.279 12.561c-.886 1.528-1.351 3.264-1.348 5.03l.023 14.505c0 14.092-8.089 21.757-17.193 27.27v-105.502c5.87-1.09 11.572-2.797 17.036-5.058-.069 2.191-.01 4.001.475 5.811z"/><path d="m314.642 196.282c-17.921 0-32.501 14.58-32.501 32.5s14.58 32.5 32.501 32.5 32.5-14.58 32.5-32.5-14.579-32.5-32.5-32.5zm0 45.001c-6.893 0-12.501-5.607-12.501-12.5s5.608-12.5 12.501-12.5 12.5 5.608 12.5 12.5-5.607 12.5-12.5 12.5z"/><path d="m186.767 370.658c-22.057 0-40.001 17.944-40.001 40s17.944 40 40.001 40c22.056 0 40-17.944 40-40s-17.944-40-40-40zm0 60.001c-11.028 0-20.001-8.972-20.001-20s8.973-20 20.001-20 20 8.972 20 20-8.972 20-20 20z"/><path d="m178.524 204.659c5.522 0 10-4.477 10-10s-4.478-10-10-10h-.007c-5.522 0-9.997 4.477-9.997 10s4.481 10 10.004 10z"/><path d="m231.774 261.909h-.007c-5.522 0-9.997 4.477-9.997 10s4.481 10 10.004 10 10-4.477 10-10-4.478-10-10-10z"/><path d="m155.525 310.909c0-5.523-4.478-10-10-10h-.008c-5.522 0-9.996 4.477-9.996 10s4.481 10 10.004 10 10-4.477 10-10z"/><path d="m276.774 342.159h-.007c-5.522 0-9.997 4.477-9.997 10s4.481 10 10.004 10 10-4.477 10-10-4.478-10-10-10z"/><path d="m317.275 420.159h-.008c-5.522 0-9.996 4.477-9.996 10s4.481 10 10.004 10 10-4.477 10-10-4.478-10-10-10z"/><path d="m350.267 286.659h-.008c-5.522 0-9.996 4.477-9.996 10s4.481 10 10.004 10 10-4.477 10-10-4.478-10-10-10z"/><path d="m246.013 109.814h-.007c-5.522 0-9.996 4.477-9.996 10s4.48 10 10.003 10 10-4.477 10-10-4.477-10-10-10z"/></g></g></svg>