<svg height="512pt" viewBox="-4 0 512 512" width="512pt" xmlns="http://www.w3.org/2000/svg"><path d="m82.609375 130.996094h-58.195313c-9.054687 0-16.457031 7.40625-16.457031 16.457031v6.035156c0 9.050781 7.402344 16.457031 16.457031 16.457031h9.5s27.679688 3.003907 48.691407 32.410157v-71.359375zm0 0" fill="#4d6777"/><path d="m480.398438 130.996094h-58.195313v71.359375c21.015625-29.40625 48.691406-32.410157 48.691406-32.410157h9.503907c9.050781 0 16.457031-7.40625 16.457031-16.457031v-6.035156c0-9.050781-7.40625-16.457031-16.457031-16.457031zm0 0" fill="#4d6777"/><path d="m42.957031 159.246094v-7.578125c0-11.367188 9.300781-20.667969 20.667969-20.667969h-39.210938c-9.054687 0-16.457031 7.40625-16.457031 16.457031v6.035157c0 9.050781 7.402344 16.457031 16.457031 16.457031h9.5s6.976563.757812 16.585938 5.230469c-4.597656-3.796876-7.542969-9.539063-7.542969-15.933594zm0 0" fill="#394d5c"/><path d="m457.203125 130.996094h-35v71.359375c11.558594-16.175781 25.125-24.351563 35-28.445313zm0 0" fill="#394d5c"/><path d="m79.609375 127.996094v268.691406c0 21.40625 17.355469 38.765625 38.761719 38.765625h268.066406c21.410156 0 38.765625-17.359375 38.765625-38.765625v-268.691406zm0 0" fill="#d7f7ff"/><path d="m114.609375 396.6875v-268.691406h-35v268.691406c0 21.40625 17.355469 38.765625 38.761719 38.765625h35.003906c-21.410156 0-38.765625-17.359375-38.765625-38.765625zm0 0" fill="#b7e9f9"/><g fill="#394d5c"><path d="m357.179688 433.453125h-6.03125c-9.050782 0-16.457032 7.402344-16.457032 16.457031v18.894532h38.945313v-18.894532c0-9.054687-7.40625-16.457031-16.457031-16.457031zm0 0"/><path d="m255.421875 433.453125h-6.035156c-9.050781 0-16.457031 7.402344-16.457031 16.457031v18.894532h38.949218v-18.894532c0-9.054687-7.40625-16.457031-16.457031-16.457031zm0 0"/><path d="m153.664062 433.453125h-6.035156c-9.050781 0-16.457031 7.402344-16.457031 16.457031v18.894532h38.949219v-18.894532c0-9.054687-7.40625-16.457031-16.457032-16.457031zm0 0"/></g><path d="m366.664062 436.496094c-2.6875-1.910156-5.957031-3.042969-9.484374-3.042969h-6.03125c-9.050782 0-16.457032 7.402344-16.457032 16.457031v18.894532h25v-18.894532c0-5.527344 2.765625-10.425781 6.972656-13.414062zm0 0" fill="#2b3f4c"/><path d="m264.90625 436.496094c-2.6875-1.910156-5.957031-3.042969-9.484375-3.042969h-6.035156c-9.050781 0-16.457031 7.402344-16.457031 16.457031v18.894532h25.003906v-18.894532c0-5.527344 2.765625-10.425781 6.972656-13.414062zm0 0" fill="#2b3f4c"/><path d="m163.148438 436.496094c-2.6875-1.910156-5.957032-3.042969-9.484376-3.042969h-6.035156c-9.050781 0-16.457031 7.402344-16.457031 16.457031v18.894532h25.003906v-18.894532c0-5.527344 2.765625-10.425781 6.972657-13.414062zm0 0" fill="#2b3f4c"/><path d="m119.851562 129.996094c1.046876 1.996094 1.648438 4.265625 1.648438 6.675781v46.40625c0 8.996094 7.292969 16.285156 16.289062 16.285156h7.152344c8.996094 0 16.289063-7.292969 16.289063-16.285156v-19.867187c0-8.992188 7.289062-16.285157 16.289062-16.285157h7.148438c8.996093 0 16.289062 7.292969 16.289062 16.285157v50.058593c0 8.996094 7.292969 16.289063 16.289063 16.289063h7.152344c8.996093 0 16.289062-7.292969 16.289062-16.289063v-76.601562c0-2.410157.597656-4.675781 1.648438-6.671875zm0 0" fill="#fdbd40"/><path d="m152.503906 183.078125v-46.40625c0-2.410156-.601562-4.679687-1.648437-6.675781h-31.003907c1.050782 1.996094 1.648438 4.265625 1.648438 6.675781v46.40625c0 8.996094 7.292969 16.285156 16.289062 16.285156h7.152344c4.714844 0 8.949219-2.015625 11.925782-5.21875-2.699219-2.90625-4.363282-6.789062-4.363282-11.066406zm0 0" fill="#f2aa2a"/><path d="m231.960938 213.269531v-50.054687c0-8.996094-7.292969-16.289063-16.289063-16.289063h-7.152344c-4.714843 0-8.949219 2.015625-11.925781 5.21875 2.699219 2.90625 4.363281 6.789063 4.363281 11.070313v50.054687c0 8.996094 7.292969 16.289063 16.289063 16.289063h7.152344c4.714843 0 8.949218-2.015625 11.925781-5.21875-2.699219-2.90625-4.363281-6.789063-4.363281-11.070313zm0 0" fill="#f2aa2a"/><path d="m240.6875 275.605469c0 10.972656-8.894531 19.863281-19.867188 19.863281-10.96875 0-19.863281-8.890625-19.863281-19.863281 0-10.96875 8.894531-19.863281 19.863281-19.863281 10.972657 0 19.867188 8.894531 19.867188 19.863281zm0 0" fill="#fdbd40"/><path d="m228.957031 275.605469c0-5.507813 2.246094-10.488281 5.863281-14.085938-3.589843-3.570312-8.535156-5.777343-14-5.777343-10.96875 0-19.863281 8.894531-19.863281 19.863281 0 10.972656 8.894531 19.863281 19.863281 19.863281 5.464844 0 10.410157-2.207031 14-5.777344-3.617187-3.597656-5.863281-8.578125-5.863281-14.085937zm0 0" fill="#f2aa2a"/><path d="m432.335938 92.050781h-359.859376c-9.050781 0-16.457031 7.402344-16.457031 16.457031v6.03125c0 9.054688 7.40625 16.457032 16.457031 16.457032h359.859376c9.050781 0 16.457031-7.402344 16.457031-16.457032v-6.03125c0-9.054687-7.40625-16.457031-16.457031-16.457031zm0 0" fill="#87cee9"/><path d="m432.335938 103.816406h-359.859376c-5.03125 0-9.550781-2.296875-12.574218-5.882812-2.417969 2.863281-3.882813 6.554687-3.882813 10.570312v6.035156c0 9.050782 7.40625 16.457032 16.457031 16.457032h359.859376c9.050781 0 16.457031-7.40625 16.457031-16.457032v-6.03125c0-4.019531-1.464844-7.710937-3.882813-10.574218-3.023437 3.585937-7.542968 5.882812-12.574218 5.882812zm0 0" fill="#5dc0db"/><path d="m404.359375 92.050781v-10.058593c0-21.410157-17.359375-38.765626-38.765625-38.765626h-226.375c-21.410156 0-38.765625 17.355469-38.765625 38.765626v10.058593zm0 0" fill="#d7f7ff"/><path d="m174.21875 43.226562h-35c-21.410156 0-38.765625 17.355469-38.765625 38.765626v10.058593h35.003906v-10.058593c0-21.410157 17.355469-38.765626 38.761719-38.765626zm0 0" fill="#b7e9f9"/><path d="m432.335938 465.804688h-359.859376c-9.050781 0-16.457031 7.40625-16.457031 16.457031v6.035156c0 9.050781 7.40625 16.457031 16.457031 16.457031h359.859376c9.050781 0 16.457031-7.40625 16.457031-16.457031v-6.035156c0-9.050781-7.40625-16.457031-16.457031-16.457031zm0 0" fill="#4d6777"/><path d="m432.335938 479.175781h-359.859376c-5.394531 0-10.191406-2.644531-13.195312-6.6875-2.039062 2.742188-3.261719 6.117188-3.261719 9.773438v6.035156c0 9.050781 7.40625 16.457031 16.457031 16.457031h359.859376c9.050781 0 16.457031-7.40625 16.457031-16.457031v-6.035156c0-3.65625-1.222657-7.03125-3.261719-9.773438-3.007812 4.042969-7.800781 6.6875-13.195312 6.6875zm0 0" fill="#394d5c"/><path d="m23.957031 177.191406h8.945313c2.785156.480469 21.5625 4.5 38.75 27.371094v191.871094c0 25.507812 20.753906 46.265625 46.265625 46.265625h7.042969c-1.121094 2.769531-1.746094 5.789062-1.746094 8.957031v6.394531h-51.195313c-13.207031 0-23.957031 10.746094-23.957031 23.957031v6.035157c0 13.210937 10.75 23.957031 23.957031 23.957031h162.429688c4.140625 0 7.5-3.359375 7.5-7.5 0-4.144531-3.359375-7.5-7.5-7.5h-162.429688c-4.9375 0-8.957031-4.019531-8.957031-8.957031v-6.035157c0-4.9375 4.019531-8.957031 8.957031-8.957031h359.859375c4.9375 0 8.957032 4.019531 8.957032 8.957031v6.035157c0 4.9375-4.019532 8.957031-8.957032 8.957031h-162.429687c-4.140625 0-7.5 3.355469-7.5 7.5 0 4.140625 3.359375 7.5 7.5 7.5h162.429687c13.210938 0 23.957032-10.746094 23.957032-23.957031v-6.035157c0-13.210937-10.746094-23.957031-23.957032-23.957031h-51.195312v-6.394531c0-3.167969-.625-6.1875-1.746094-8.957031h7.042969c25.511719 0 46.265625-20.753907 46.265625-46.265625v-107.675782c0-4.144531-3.355469-7.5-7.5-7.5-4.144532 0-7.5 3.355469-7.5 7.5v107.675782c0 17.238281-14.023438 31.261718-31.265625 31.261718h-268.0625c-17.238281 0-31.265625-14.023437-31.265625-31.261718 0-3.910156 0-253.921875 0-258.1875h26.890625v44.578125c0 13.117187 10.671875 23.789062 23.792969 23.789062h7.148437c13.117187 0 23.789063-10.671875 23.789063-23.789062v-19.863281c0-4.847657 3.941406-8.789063 8.789062-8.789063h7.148438c4.847656 0 8.789062 3.941406 8.789062 8.789063v50.054687c0 13.117187 10.671875 23.789063 23.789062 23.789063h7.152344c13.113282 0 23.785156-10.671876 23.785156-23.789063v-74.769531h169.519532v115.507812c0 4.144532 3.355468 7.5 7.5 7.5 4.144531 0 7.5-3.355468 7.5-7.5v-49.191406c17.164062-22.84375 35.898437-26.878906 38.753906-27.371094h8.941406c13.207032 0 23.957032-10.746094 23.957032-23.957031v-6.035156c0-13.207031-10.75-23.957031-23.957032-23.957031h-25.851562c1.121094-2.769532 1.742187-5.789063 1.742187-8.957032v-6.03125c0-13.210937-10.746093-23.957031-23.957031-23.957031h-20.476562v-2.558594c0-25.511719-20.753907-46.265625-46.265626-46.265625h-65.273437c-.601563-1.210937.308594.410156-12.515625-21.796875-4.867188-8.433593-13.945312-13.675781-23.6875-13.675781h-23.414062c-9.742188 0-18.820313 5.242188-23.691407 13.675781-12.820312 22.210938-11.910156 20.585938-12.511719 21.796875h-65.277343c-25.511719 0-46.265625 20.753906-46.265625 46.265625v2.558594h-20.476563c-13.207031 0-23.957031 10.746094-23.957031 23.957031v6.035156c0 3.167969.625 6.1875 1.742188 8.957032h-25.847657c-13.210937 0-23.957031 10.746094-23.957031 23.957031v6.035156c0 13.207031 10.746094 23.953125 23.957031 23.953125zm201.019531 280.859375h-47.8125v-6.394531c0-3.167969-.621093-6.1875-1.742187-8.957031h51.296875c-1.121094 2.769531-1.742188 5.789062-1.742188 8.957031zm-86.757812 0v-6.394531c0-4.941406 4.015625-8.957031 8.957031-8.957031h6.03125c4.941407 0 8.957031 4.015625 8.957031 8.957031v6.394531zm101.757812 0v-6.394531c0-4.941406 4.019532-8.957031 8.957032-8.957031h6.03125c4.941406 0 8.957031 4.015625 8.957031 8.957031v6.394531zm101.757813 0v-6.394531c0-4.941406 4.019531-8.957031 8.957031-8.957031h6.035156c4.9375 0 8.957032 4.015625 8.957032 8.957031v6.394531zm-15-6.394531v6.394531h-47.808594v-6.394531c0-3.167969-.625-6.1875-1.746093-8.957031h51.296874c-1.121093 2.769531-1.742187 5.789062-1.742187 8.957031zm-94.003906-238.640625c0 4.847656-3.941407 8.789063-8.789063 8.789063h-7.148437c-4.847657 0-8.789063-3.941407-8.789063-8.789063v-50.054687c0-13.117188-10.671875-23.789063-23.789062-23.789063h-7.152344c-13.117188 0-23.789062 10.671875-23.789062 23.789063v19.863281c0 4.847656-3.941407 8.789062-8.785157 8.789062h-7.152343c-4.847657 0-8.789063-3.941406-8.789063-8.789062v-44.578125h104.183594zm256.167969-65.816406v6.035156c0 4.9375-4.019532 8.957031-8.957032 8.957031-9.796875 0-9.675781-.035156-10.40625.054688-.917968.113281-18.605468 2.480468-37.285156 19.898437v-43.898437h47.691406c4.9375 0 8.957032 4.015625 8.957032 8.953125zm-259.355469-126.023438c2.199219-3.808593 6.300781-6.175781 10.699219-6.175781h23.414062c4.398438 0 8.5 2.367188 10.699219 6.175781l8.253906 14.296875h-61.320313zm-122.046875 60.5625c0-17.238281 14.027344-31.265625 31.265625-31.265625h226.375c17.238281 0 31.265625 14.027344 31.265625 31.265625v2.558594h-288.90625zm-44.433594 32.550781v-6.035156c0-4.9375 4.019531-8.957031 8.957031-8.957031h359.859375c4.9375 0 8.957032 4.019531 8.957032 8.957031v6.035156c0 4.9375-4.019532 8.957032-8.957032 8.957032-13.796875 0-341.359375 0-359.859375 0-4.9375-.003906-8.957031-4.019532-8.957031-8.957032zm-48.0625 32.910157c0-4.9375 4.019531-8.953125 8.957031-8.953125h47.695313v43.898437c-16.855469-15.714843-34.304688-19.953125-38.191406-19.953125h-9.503907c-4.9375 0-8.957031-4.019531-8.957031-8.957031zm0 0"/><path d="m220.367188 247.988281c-15.089844 0-27.367188 12.277344-27.367188 27.363281 0 15.089844 12.277344 27.367188 27.367188 27.367188 15.085937 0 27.363281-12.277344 27.363281-27.367188 0-15.085937-12.277344-27.363281-27.363281-27.363281zm0 39.726563c-6.820313 0-12.367188-5.546875-12.367188-12.363282 0-6.816406 5.546875-12.363281 12.367188-12.363281 6.816406 0 12.359374 5.546875 12.359374 12.363281 0 6.816407-5.542968 12.363282-12.359374 12.363282zm0 0"/></svg>